<svg width="16" height="16" viewBox="0 0 16 16" fill="none" xmlns="http://www.w3.org/2000/svg">
<path d="M1.22154 15.0588H4.30565V5.07446H1.22154V15.0588Z" fill="black"/>
<path d="M0.941162 1.88696C0.941162 2.87134 1.73555 3.66821 2.76359 3.66821C3.7449 3.66821 4.53929 2.87134 4.53929 1.88696C4.53929 0.902588 3.7449 0.0588379 2.76359 0.0588379C1.73555 0.0588379 0.941162 0.902588 0.941162 1.88696Z" fill="black"/>
<path d="M12.8103 15.0588H15.9412V9.57446C15.9412 6.90259 15.3337 4.79321 12.2028 4.79321C10.7075 4.79321 9.67948 5.63696 9.25892 6.43384H9.21219V5.07446H6.26826V15.0588H9.35238V10.137C9.35238 8.82446 9.58602 7.55884 11.2215 7.55884C12.8103 7.55884 12.8103 9.05884 12.8103 10.1838V15.0588Z" fill="black"/>
</svg>
