<svg width="651" height="649" viewBox="0 0 651 649" fill="none" xmlns="http://www.w3.org/2000/svg">
<mask id="path-1-outside-1_1_568" maskUnits="userSpaceOnUse" x="-0.568359" y="-0.808929" width="651" height="650" fill="black">
<rect fill="white" x="-0.568359" y="-0.808929" width="651" height="650"/>
<path d="M325.361 161.753L345.789 0.191071L345.63 163.028L386.166 5.29469L365.738 166.856L425.745 15.3424L385.208 173.236L463.728 30.3343L403.562 181.848L499.476 49.9514L420.797 192.853L532.352 74.0341L436.597 205.771L562.196 101.944L450.482 220.604L588.21 133.364L462.451 237.19L610.074 167.813L472.346 255.053L627.469 204.655L479.847 274.032L640.077 243.41L484.954 293.809L647.738 283.442L487.507 313.904L650.291 324.111L487.507 334.319L647.738 364.781L484.954 354.574L640.077 404.812L479.847 374.35L627.469 443.727L472.346 393.329L610.074 480.569L462.451 411.192L588.21 515.019L450.482 427.619L562.196 546.438L436.597 442.452L532.352 574.348L420.797 455.53L499.476 598.271L403.562 466.375L463.728 617.888L385.208 475.147L425.745 632.88L365.738 481.367L386.166 643.088L345.63 485.194L345.789 648.191L325.361 486.47L304.934 648.191L304.934 485.194L264.397 643.088L284.985 481.367L224.978 632.88L265.514 475.147L186.995 617.888L247.161 466.375L151.246 598.271L229.925 455.53L118.211 574.348L214.126 442.452L88.5265 546.438L200.241 427.619L62.513 515.019L188.272 411.192L40.6489 480.569L178.377 393.329L23.2533 443.727L170.876 374.35L10.6455 404.812L165.769 354.574L2.98512 364.781L163.216 334.319L0.431641 324.111L163.216 313.904L2.98512 283.442L165.769 293.809L10.6455 243.41L170.876 274.032L23.2533 204.655L178.377 255.053L40.6489 167.813L188.272 237.19L62.513 133.364L200.241 220.604L88.5265 101.944L214.126 205.771L118.211 74.0341L229.925 192.853L151.246 49.9514L247.161 181.848L186.995 30.3343L265.514 173.236L224.978 15.3424L284.985 166.856L264.397 5.29469L304.934 163.028V0.191071L325.361 161.753Z"/>
</mask>
<path d="M325.361 161.753L345.789 0.191071L345.63 163.028L386.166 5.29469L365.738 166.856L425.745 15.3424L385.208 173.236L463.728 30.3343L403.562 181.848L499.476 49.9514L420.797 192.853L532.352 74.0341L436.597 205.771L562.196 101.944L450.482 220.604L588.21 133.364L462.451 237.19L610.074 167.813L472.346 255.053L627.469 204.655L479.847 274.032L640.077 243.41L484.954 293.809L647.738 283.442L487.507 313.904L650.291 324.111L487.507 334.319L647.738 364.781L484.954 354.574L640.077 404.812L479.847 374.35L627.469 443.727L472.346 393.329L610.074 480.569L462.451 411.192L588.21 515.019L450.482 427.619L562.196 546.438L436.597 442.452L532.352 574.348L420.797 455.53L499.476 598.271L403.562 466.375L463.728 617.888L385.208 475.147L425.745 632.88L365.738 481.367L386.166 643.088L345.63 485.194L345.789 648.191L325.361 486.47L304.934 648.191L304.934 485.194L264.397 643.088L284.985 481.367L224.978 632.88L265.514 475.147L186.995 617.888L247.161 466.375L151.246 598.271L229.925 455.53L118.211 574.348L214.126 442.452L88.5265 546.438L200.241 427.619L62.513 515.019L188.272 411.192L40.6489 480.569L178.377 393.329L23.2533 443.727L170.876 374.35L10.6455 404.812L165.769 354.574L2.98512 364.781L163.216 334.319L0.431641 324.111L163.216 313.904L2.98512 283.442L165.769 293.809L10.6455 243.41L170.876 274.032L23.2533 204.655L178.377 255.053L40.6489 167.813L188.272 237.19L62.513 133.364L200.241 220.604L88.5265 101.944L214.126 205.771L118.211 74.0341L229.925 192.853L151.246 49.9514L247.161 181.848L186.995 30.3343L265.514 173.236L224.978 15.3424L284.985 166.856L264.397 5.29469L304.934 163.028V0.191071L325.361 161.753Z" stroke="black" stroke-width="2" stroke-miterlimit="10" mask="url(#path-1-outside-1_1_568)"/>
</svg>
